<svg id="icons" enable-background="new 0 0 64 64" height="512" viewBox="0 0 64 64" width="512" xmlns="http://www.w3.org/2000/svg"><g><g><path d="m63 6.02v2h-62v-2c0-1.109.89-2 2-2h58c1.1 0 2 .89 2 2z" fill="#ccd1d9"/></g><g><path d="m19 17.99 8 15.01h-8z" fill="#545c66"/></g><g><path d="m19 17.99v15.01h-8z" fill="#656d78"/></g><g><path d="m27 33-8-15.01-8 15.01h8zm32.02-20.97v27.97h-54v-27.97z" fill="#a0d468"/></g><g><circle cx="32.02" cy="46.5" fill="#a0d468" r="2.5"/></g><g><circle cx="51.52" cy="46.5" fill="#a0d468" r="2.5"/></g><g><circle cx="12.52" cy="46.5" fill="#a0d468" r="2.5"/></g><g><path d="m63 8.02v51.96h-62v-51.96zm-3.98 31.98v-27.97h-54v27.97zm-5 6.5c0-1.38-1.119-2.5-2.5-2.5-1.38 0-2.5 1.12-2.5 2.5s1.12 2.5 2.5 2.5 2.5-1.12 2.5-2.5zm-19.5 0c0-1.38-1.119-2.5-2.5-2.5-1.38 0-2.5 1.12-2.5 2.5s1.12 2.5 2.5 2.5 2.5-1.12 2.5-2.5zm-19.5 0c0-1.38-1.119-2.5-2.5-2.5-1.38 0-2.5 1.12-2.5 2.5s1.12 2.5 2.5 2.5 2.5-1.12 2.5-2.5z" fill="#e6e9ed"/></g></g><g><g><g><g><path d="m4.026 7.017c-.553 0-1.005-.447-1.005-1s.442-1 .994-1h.011c.552 0 1 .447 1 1s-.448 1-1 1z"/></g><g><path d="m7.026 7.017c-.553 0-1.005-.447-1.005-1s.442-1 .994-1h.011c.552 0 1 .447 1 1s-.448 1-1 1z"/></g><g><path d="m10.026 7.017c-.553 0-1.005-.447-1.005-1s.442-1 .994-1h.011c.552 0 1 .447 1 1s-.448 1-1 1z"/></g><g><path d="m63.004 60.983h-62c-.553 0-1-.447-1-1v-51.966c0-.553.447-1 1-1h62c.553 0 1 .447 1 1v51.967c0 .552-.447.999-1 .999zm-61-2h60v-49.966h-60v49.966z"/></g><g><path d="m.996 7.017c-.553 0-1-.447-1-1 0-1.654 1.346-3 3-3 .553 0 1 .447 1 1s-.447 1-1 1c-.552 0-1 .448-1 1s-.447 1-1 1z"/></g><g><path d="m.996 9.017c-.553 0-1-.447-1-1v-2c0-.553.447-1 1-1s1 .447 1 1v2c0 .552-.447 1-1 1z"/></g><g><path d="m62.996 7.017c-.553 0-1-.447-1-1 0-.552-.448-1-1-1-.553 0-1-.447-1-1s.447-1 1-1c1.654 0 3 1.346 3 3 0 .552-.447 1-1 1z"/></g><g><path d="m62.996 9.017c-.553 0-1-.447-1-1v-2c0-.553.447-1 1-1s1 .447 1 1v2c0 .552-.447 1-1 1z"/></g><g><path d="m60.996 5.017h-58c-.553 0-1-.447-1-1s.447-1 1-1h58c.553 0 1 .447 1 1s-.447 1-1 1z"/></g></g><g><path d="m19.016 54.001h-12.995c-.553 0-1-.447-1-1s.447-1 1-1h12.994c.553 0 1 .447 1 1s-.447 1-.999 1z"/></g><g><path d="m58.014 54.001h-12.994c-.553 0-1-.447-1-1s.447-1 1-1h12.994c.553 0 1 .447 1 1s-.448 1-1 1z"/></g><g><path d="m38.502 54.001h-12.994c-.553 0-1-.447-1-1s.447-1 1-1h12.994c.553 0 1 .447 1 1s-.447 1-1 1z"/></g><g><path d="m35.52 57.001h-7.031c-.553 0-1-.447-1-1s.447-1 1-1h7.031c.553 0 1 .447 1 1s-.448 1-1 1z"/></g><g><path d="m55.02 57.001h-7.006c-.553 0-1-.447-1-1s.447-1 1-1h7.006c.553 0 1 .447 1 1s-.448 1-1 1z"/></g><g><path d="m16.02 57.001h-6.999c-.553 0-1-.447-1-1s.447-1 1-1h6.998c.553 0 1 .447 1 1s-.447 1-.999 1z"/></g><g><path d="m59.02 40.995h-54c-.553 0-1-.447-1-1v-27.963c0-.553.447-1 1-1h54c.553 0 1 .447 1 1v27.963c0 .553-.448 1-1 1zm-53-2h52v-25.963h-52z"/></g><g><path d="m54.008 23.022h-20.999c-.553 0-1-.447-1-1s.447-1 1-1h20.999c.553 0 1 .447 1 1s-.447 1-1 1z"/></g><g><path d="m54.008 20.021h-20.999c-.553 0-1-.447-1-1s.447-1 1-1h20.999c.553 0 1 .447 1 1s-.447 1-1 1z"/></g><g><path d="m54.008 26.03h-20.999c-.553 0-1-.447-1-1s.447-1 1-1h20.999c.553 0 1 .447 1 1s-.447 1-1 1z"/></g><g><path d="m42.006 29.038h-8.997c-.553 0-1-.447-1-1s.447-1 1-1h8.997c.553 0 1 .447 1 1s-.447 1-1 1z"/></g><g><path d="m38.002 34.03h-4.991c-.553 0-1-.447-1-1s.447-1 1-1h4.991c.553 0 1 .447 1 1s-.447 1-1 1z"/></g><g><path d="m41.996 33.03h-1.004c-.553 0-1-.447-1-1s.447-1 1-1h1.004c.553 0 1 .447 1 1s-.447 1-1 1z"/></g><g><path d="m41.997 35.03c-.366 0-.719-.202-.895-.552l-1.004-2c-.248-.493-.049-1.094.445-1.342.493-.247 1.094-.048 1.342.445l1.004 2c.248.493.049 1.094-.445 1.342-.143.073-.297.107-.447.107z"/></g><g><path d="m41.996 35.03h-1c-.553 0-1-.447-1-1s.447-1 1-1h1c.553 0 1 .447 1 1s-.447 1-1 1z"/></g><g><path d="m12.519 50.003c-1.93 0-3.5-1.57-3.5-3.5s1.57-3.5 3.5-3.5 3.5 1.57 3.5 3.5-1.571 3.5-3.5 3.5zm0-5c-.827 0-1.5.673-1.5 1.5s.673 1.5 1.5 1.5 1.5-.673 1.5-1.5-.673-1.5-1.5-1.5z"/></g><g><path d="m32.02 50.003c-1.93 0-3.5-1.57-3.5-3.5s1.57-3.5 3.5-3.5 3.5 1.57 3.5 3.5-1.571 3.5-3.5 3.5zm0-5c-.827 0-1.5.673-1.5 1.5s.673 1.5 1.5 1.5 1.5-.673 1.5-1.5-.673-1.5-1.5-1.5z"/></g><g><path d="m51.521 50.003c-1.93 0-3.5-1.57-3.5-3.5s1.57-3.5 3.5-3.5 3.5 1.57 3.5 3.5-1.571 3.5-3.5 3.5zm0-5c-.827 0-1.5.673-1.5 1.5s.673 1.5 1.5 1.5 1.5-.673 1.5-1.5-.673-1.5-1.5-1.5z"/></g></g><g><g><path d="m28.999 34.001h-20.003c-.553 0-1-.447-1-1s.447-1 1-1h20.003c.553 0 1 .447 1 1s-.447 1-1 1z"/></g><g><path d="m10.996 34.001c-.158 0-.319-.038-.47-.117-.487-.26-.672-.866-.412-1.354l8.001-15.007c.261-.486.862-.671 1.354-.412.487.26.672.866.412 1.354l-8.001 15.007c-.181.337-.526.529-.884.529z"/></g><g><path d="m27.001 34.001c-.357 0-.703-.192-.884-.529l-8.002-15.007c-.26-.487-.075-1.093.412-1.354.49-.259 1.093-.074 1.354.412l8.002 15.007c.26.487.075 1.093-.412 1.354-.151.079-.312.117-.47.117z"/></g><g><path d="m18.998 34.001c-.553 0-1-.447-1-1v-15.007c0-.553.447-1 1-1s1 .447 1 1v15.007c0 .553-.447 1-1 1z"/></g><g><path d="m28.999 34.001c-.553 0-1-.447-1-1v-1.002c0-.553.447-1 1-1s1 .447 1 1v1.002c0 .553-.447 1-1 1z"/></g><g><path d="m8.996 34.001c-.553 0-1-.447-1-1v-1.002c0-.553.447-1 1-1s1 .447 1 1v1.002c0 .553-.447 1-1 1z"/></g></g></g></svg>